<?xml version="1.0" standalone="no"?>
<!DOCTYPE svg PUBLIC "-//W3C//DTD SVG 20010904//EN"
 "http://www.w3.org/TR/2001/REC-SVG-20010904/DTD/svg10.dtd">
<svg version="1.0" xmlns="http://www.w3.org/2000/svg"
 width="1254.000000pt" height="1254.000000pt" viewBox="0 0 1254.000000 1254.000000"
 preserveAspectRatio="xMidYMid meet">

<g transform="translate(0.000000,1254.000000) scale(0.100000,-0.100000)"
fill="#000000" stroke="none">
<path d="M4070 10949 c-405 -5 -468 -8 -575 -27 -798 -143 -1456 -672 -1773
-1427 -79 -188 -111 -298 -160 -555 l-26 -135 -4 -2495 c-2 -1733 0 -2530 8
-2608 45 -475 240 -947 546 -1317 217 -263 478 -469 789 -622 239 -117 516
-196 783 -223 75 -8 875 -10 2677 -8 l2570 4 140 27 c297 56 544 147 786 290
650 383 1077 1054 1164 1828 13 115 15 472 15 2569 0 2449 -1 2499 -36 2710
-78 462 -297 908 -608 1238 -415 441 -925 694 -1511 747 -90 9 -4187 12 -4785
4z m3410 -1547 c436 -87 755 -264 1014 -564 248 -286 417 -665 482 -1078 27
-170 25 -494 -4 -650 -71 -389 -224 -691 -486 -958 -203 -209 -446 -366 -811
-527 -71 -31 -136 -63 -144 -70 -11 -11 -7 -20 26 -56 91 -101 787 -930 1019
-1214 136 -166 612 -770 670 -850 86 -118 91 -136 45 -187 l-29 -33 -638 -3
c-705 -3 -742 0 -890 58 -136 54 -207 113 -422 349 -376 411 -527 577 -682
746 -86 94 -252 276 -370 405 -117 129 -360 394 -539 589 -450 489 -448 487
-456 511 -10 31 2 68 25 80 13 7 138 13 328 16 324 5 423 13 537 44 98 26 827
340 1080 464 255 126 401 221 516 335 130 130 204 251 256 418 25 83 27 99 27
273 -1 217 -14 280 -92 444 -109 227 -287 381 -526 455 -129 40 -242 43 -1381
34 l-1080 -8 -45 -25 c-28 -16 -55 -43 -75 -74 l-30 -49 -3 -1524 c-1 -838 -6
-1523 -11 -1523 -4 0 -44 22 -88 49 -44 26 -254 151 -467 276 -212 125 -408
246 -434 270 -26 24 -61 67 -79 96 -67 112 -64 21 -61 1645 l3 1469 22 57 c30
78 85 160 142 208 60 53 172 108 241 119 31 5 756 8 1675 7 l1620 -1 115 -23z
m-262 -1425 c-7 -7 -48 -41 -90 -76 -43 -35 -76 -68 -75 -74 1 -6 -14 -18 -33
-28 -19 -9 -35 -23 -35 -30 0 -8 -4 -14 -10 -15 -21 -2 -45 -16 -40 -24 3 -5
-4 -11 -15 -15 -11 -3 -20 -11 -20 -16 0 -5 -7 -9 -15 -9 -8 0 -15 -6 -15 -14
0 -8 -10 -23 -22 -33 -13 -10 -29 -30 -37 -45 -8 -15 -19 -25 -24 -21 -6 3
-16 -2 -24 -12 -7 -11 -13 -15 -13 -11 0 4 -7 1 -15 -8 -9 -8 -15 -19 -14 -23
4 -24 -2 -44 -13 -42 -21 3 -47 -12 -42 -24 2 -7 -14 -31 -36 -55 -22 -24 -40
-52 -40 -64 0 -13 -5 -18 -13 -15 -9 3 -19 -7 -27 -29 -8 -19 -17 -34 -22 -34
-4 0 -8 -7 -8 -16 0 -8 -4 -12 -10 -9 -5 3 -10 -1 -10 -9 0 -9 -5 -15 -11 -13
-6 1 -14 -4 -17 -12 -3 -9 0 -11 9 -6 8 4 2 -4 -13 -19 -16 -15 -28 -37 -28
-50 0 -13 -7 -26 -15 -30 -10 -4 -13 -15 -10 -38 4 -26 3 -29 -4 -13 -5 11
-10 14 -10 7 -1 -13 -31 -49 -31 -37 0 13 -48 -43 -52 -61 -2 -11 -11 -18 -21
-18 -10 1 -17 -5 -17 -17 0 -10 -5 -19 -10 -19 -6 0 -14 -8 -17 -17 -4 -10
-17 -29 -29 -42 -12 -12 -27 -41 -33 -62 -9 -28 -17 -39 -31 -39 -11 0 -20 -7
-20 -15 0 -18 -84 -105 -100 -105 -6 0 -8 -4 -5 -10 3 -5 2 -10 -3 -10 -6 0
-15 -13 -20 -29 -6 -16 -22 -37 -36 -46 -14 -10 -26 -24 -26 -32 0 -8 -4 -12
-8 -9 -11 6 -56 -39 -74 -75 l-14 -27 -134 116 c-224 192 -475 418 -568 510
-111 110 -146 175 -146 272 0 123 66 215 204 283 80 39 181 48 258 23 66 -22
221 -150 525 -433 48 -46 96 -83 106 -83 10 0 58 34 107 77 49 42 262 220 474
396 212 176 419 349 460 383 41 35 79 63 83 64 5 0 2 -6 -5 -13z m-1263 -1671
c6 -5 1 -4 -10 2 -11 6 -33 25 -50 44 l-30 33 40 -35 c22 -19 45 -39 50 -44z
m82 -32 c-3 -3 -12 -4 -19 -1 -8 3 -5 6 6 6 11 1 17 -2 13 -5z m40 -10 c-3 -3
-12 -4 -19 -1 -8 3 -5 6 6 6 11 1 17 -2 13 -5z m-2676 -633 c358 -91 639 -201
1044 -406 222 -112 526 -283 550 -308 6 -6 -11 2 -37 16 -38 22 -51 25 -72 17
-14 -5 -26 -6 -27 -2 0 4 -4 -2 -9 -13 -7 -17 -9 -17 -9 -2 -1 22 -12 22 -39
-4 -12 -11 -27 -17 -34 -13 -7 5 -9 2 -6 -7 4 -9 -2 -14 -18 -15 -39 -3 -54
-12 -54 -34 0 -12 -4 -18 -10 -15 -5 3 -10 0 -10 -8 0 -9 -9 -12 -27 -10 -24
4 -28 1 -29 -21 -2 -35 -21 -56 -50 -56 -13 0 -28 -8 -33 -17 -6 -10 -11 -15
-11 -10 0 4 -17 -12 -37 -35 -21 -24 -41 -45 -45 -48 -4 -3 17 -16 48 -29 82
-36 58 -36 -37 0 -363 134 -870 258 -1281 314 -56 7 -102 47 -112 96 -3 17 -6
151 -6 296 0 290 4 312 58 345 42 27 83 22 293 -31z m1429 -700 c0 -5 -7 -12
-16 -15 -14 -5 -15 -4 -4 9 14 17 20 19 20 6z m-180 -121 c0 -5 -2 -10 -4 -10
-3 0 -8 5 -11 10 -3 6 -1 10 4 10 6 0 11 -4 11 -10z m-1670 -190 c402 -26 858
-99 1279 -206 95 -24 176 -44 179 -44 3 0 3 -3 0 -6 -3 -3 -34 2 -68 11 -34 9
-69 14 -77 11 -9 -4 -11 -2 -7 6 5 7 -1 9 -19 6 -15 -3 -24 -1 -21 3 5 9 -16
12 -61 12 -47 -1 -50 -2 -29 -19 17 -15 17 -15 -8 0 -15 9 -29 16 -30 16 -9 0
-4 -66 6 -72 7 -5 5 -8 -5 -8 -12 0 -15 -8 -13 -32 2 -17 -1 -37 -7 -44 -6 -8
-9 -24 -5 -38 4 -16 -1 -31 -15 -47 -12 -13 -29 -33 -38 -45 -9 -11 -27 -26
-40 -33 -19 -11 -22 -18 -17 -44 l6 -32 -20 25 c-17 20 -19 21 -14 5 4 -11 14
-26 22 -32 14 -11 13 -15 -7 -33 -13 -11 -21 -26 -18 -34 4 -10 1 -13 -7 -10
-8 3 -17 1 -21 -5 -3 -7 2 -11 14 -11 22 0 30 -29 9 -32 -7 -1 16 -5 52 -9 38
-4 -19 -6 -140 -4 -256 4 -661 -9 -931 -31 -190 -15 -209 -15 -237 0 -60 31
-62 42 -62 395 l0 319 26 31 c28 34 66 48 122 44 20 -1 111 -7 202 -13z m1680
-80 c8 -5 11 -10 5 -10 -5 0 -17 5 -25 10 -8 5 -10 10 -5 10 6 0 17 -5 25 -10z
m-435 -139 c6 -1 6 -4 -1 -9 -6 -4 -14 -14 -18 -22 -3 -8 -4 -5 -2 8 3 17 1
22 -9 18 -8 -3 -17 -1 -19 3 -5 7 10 8 49 2z m-55 -46 c7 9 15 13 18 11 5 -6
-23 -36 -35 -36 -4 0 -14 10 -22 23 -14 21 -13 22 6 4 18 -16 21 -16 33 -2z
m325 -5 c13 -5 14 -9 5 -9 -8 0 -24 4 -35 9 -13 5 -14 9 -5 9 8 0 24 -4 35 -9z
m-305 -40 c0 -5 -2 -10 -4 -10 -3 0 -8 5 -11 10 -3 6 -1 10 4 10 6 0 11 -4 11
-10z m-50 -20 c8 -5 11 -12 7 -16 -4 -4 -15 0 -24 9 -18 18 -8 23 17 7z m-10
-39 c0 -5 -7 -12 -16 -15 -14 -5 -15 -4 -4 9 14 17 20 19 20 6z m28 -388 c-10
-2 -28 -2 -40 0 -13 2 -5 4 17 4 22 1 32 -1 23 -4z"/>
<path d="M4787 5019 c7 -7 15 -10 18 -7 3 3 -2 9 -12 12 -14 6 -15 5 -6 -5z"/>
<path d="M4625 4869 c-4 -6 -5 -12 -2 -15 2 -3 7 2 10 11 7 17 1 20 -8 4z"/>
<path d="M4026 4155 c4 -8 8 -15 10 -15 2 0 4 7 4 15 0 8 -4 15 -10 15 -5 0
-7 -7 -4 -15z"/>
</g>
</svg>
